<svg width="82" height="82" viewBox="0 0 75 82" fill="none" xmlns="http://www.w3.org/2000/svg">
<path fill-rule="evenodd" clip-rule="evenodd" d="M23.9167 6.83301H34.1667C41.7585 6.83301 53.8364 10.6187 57.9091 22.8367C59.7712 28.4263 59.0093 33.2473 58.2371 38.1468C58.1688 38.5568 58.1038 38.969 58.0423 39.3836C57.3009 44.2148 56.5732 49.9001 57.6153 58.083H61.5C62.4062 58.083 63.2752 58.443 63.916 59.0837C64.5567 59.7245 64.9167 60.5935 64.9167 61.4997V71.7497C64.9167 72.6558 64.5567 73.5249 63.916 74.1656C63.2752 74.8064 62.4062 75.1663 61.5 75.1663H20.5C19.5939 75.1663 18.7248 74.8064 18.0841 74.1656C17.4433 73.5249 17.0833 72.6558 17.0833 71.7497V61.4997C17.0833 60.5935 17.4433 59.7245 18.0841 59.0837C18.7248 58.443 19.5939 58.083 20.5 58.083H24.2788C25.0715 54.1743 27.3538 48.7965 33.0392 43.2C33.661 42.585 34.03 41.8778 34.1838 41.1773C30.573 43.4355 26.7985 45.4204 22.8917 47.1155C21.9576 47.5206 20.9229 47.6342 19.9232 47.4416C18.9234 47.249 18.0051 46.759 17.2883 46.0358L12.2419 40.9894C11.4036 40.1518 10.8815 39.0496 10.7643 37.8704C10.6472 36.6912 10.9424 35.5078 11.5996 34.5217L23.3905 16.837L20.8622 11.7803C20.6012 11.2594 20.4777 10.6804 20.5035 10.0984C20.5293 9.51631 20.7035 8.95052 21.0096 8.45475C21.3157 7.95899 21.7434 7.54974 22.2523 7.26589C22.7611 6.98204 23.334 6.83303 23.9167 6.83301ZM30.75 30.7497C31.6562 30.7497 32.5252 30.3897 33.166 29.749C33.8067 29.1082 34.1667 28.2392 34.1667 27.333C34.1667 26.4269 33.8067 25.5578 33.166 24.9171C32.5252 24.2763 31.6562 23.9163 30.75 23.9163C29.8438 23.9163 28.9748 24.2763 28.3341 24.9171C27.6933 25.5578 27.3333 26.4269 27.3333 27.333C27.3333 28.2392 27.6933 29.1082 28.3341 29.749C28.9748 30.3897 29.8438 30.7497 30.75 30.7497Z" fill="#FF9053"/>
</svg>
